<svg width="1024" height="1024" viewBox="0 0 1024 1024" fill="none" xmlns="http://www.w3.org/2000/svg">
  <rect width="1024" height="1024" rx="224" fill="#F3F0FF"/>
  <rect x="112" y="112" width="800" height="800" rx="192" fill="#18181B"/>
  <rect x="224" y="196" width="576" height="632" rx="104" fill="#FFFFFF"/>
  <rect x="272" y="264" width="480" height="96" rx="48" fill="#F5F3FF"/>
  <rect x="320" y="312" width="216" height="24" rx="12" fill="#6D28D9"/>
  <rect x="560" y="312" width="128" height="24" rx="12" fill="#C4B5FD"/>
  <circle cx="328" cy="476" r="44" fill="#6D28D9"/>
  <path d="M306 476L320 490L352 458" stroke="#FFFFFF" stroke-width="24" stroke-linecap="round" stroke-linejoin="round"/>
  <rect x="404" y="452" width="276" height="28" rx="14" fill="#18181B"/>
  <rect x="404" y="500" width="196" height="20" rx="10" fill="#A1A1AA"/>
  <circle cx="328" cy="636" r="44" fill="#F59E0B"/>
  <path d="M306 636L320 650L352 618" stroke="#FFFFFF" stroke-width="24" stroke-linecap="round" stroke-linejoin="round"/>
  <rect x="404" y="612" width="248" height="28" rx="14" fill="#18181B"/>
  <rect x="404" y="660" width="232" height="20" rx="10" fill="#A1A1AA"/>
  <rect x="272" y="748" width="480" height="28" rx="14" fill="#E4E4E7"/>
</svg>
